<svg width="23" height="23" viewBox="0 0 23 23" fill="none" xmlns="http://www.w3.org/2000/svg">
<g clip-path="url(#clip0_921_105)">
<path d="M16.6949 0.000732422H6.3051C2.82846 0.000732422 0 2.82919 0 6.30588V16.6956C0 20.1723 2.82846 23.0007 6.3051 23.0007H16.6949C20.1716 23.0007 23 20.1723 23 16.6956V6.30588C23 2.82919 20.1716 0.000732422 16.6949 0.000732422ZM21.6417 16.6956C21.6417 19.4233 19.4226 21.6425 16.6949 21.6425H6.3051C3.5774 21.6425 1.35826 19.4234 1.35826 16.6956V6.30588C1.35826 3.57813 3.5774 1.35899 6.3051 1.35899H16.6949C19.4226 1.35899 21.6417 3.57813 21.6417 6.30588V16.6956Z" fill="#464568"/>
<path d="M11.4998 5.19238C8.02135 5.19238 5.19141 8.02233 5.19141 11.5008C5.19141 14.9793 8.02131 17.8092 11.4998 17.8092C14.9783 17.8092 17.8083 14.9792 17.8083 11.5008C17.8083 8.02228 14.9783 5.19238 11.4998 5.19238ZM11.4998 16.451C8.77029 16.451 6.54962 14.2303 6.54962 11.5008C6.54962 8.77122 8.77029 6.55055 11.4998 6.55055C14.2294 6.55055 16.4501 8.77126 16.4501 11.5008C16.4501 14.2303 14.2294 16.451 11.4998 16.451Z" fill="#464568"/>
<path d="M17.9459 2.78857C16.8891 2.78857 16.0293 3.64842 16.0293 4.70526C16.0293 5.76209 16.8891 6.62189 17.9459 6.62189C19.0028 6.62189 19.8626 5.76204 19.8626 4.70521C19.8626 3.64838 19.0028 2.78857 17.9459 2.78857ZM17.9459 5.26359C17.6381 5.26359 17.3876 5.01311 17.3876 4.70521C17.3876 4.39732 17.6381 4.14683 17.9459 4.14683C18.2538 4.14683 18.5043 4.39736 18.5043 4.70521C18.5043 5.01306 18.2538 5.26359 17.9459 5.26359Z" fill="#464568"/>
</g>
<defs>
<clipPath id="clip0_921_105">
<rect width="23" height="23" fill="white" transform="translate(0 0.000732422)"/>
</clipPath>
</defs>
</svg>
